<svg width="20" height="20" viewBox="0 0 20 20" fill="none" xmlns="http://www.w3.org/2000/svg">
<g id="Group 1">
<path id="&#208;&#154;" d="M12.4839 14.8644L9.17203 10.4422H7.98652V14.8644H6.81982V5.22974H7.98652V9.40725H8.49459L12.3522 5.22974H13.7447L9.84946 9.4637L13.8764 14.8644H12.4839Z" fill="#FF4747"/>
<path id="Ellipse 1 (Stroke)" fill-rule="evenodd" clip-rule="evenodd" d="M10 18.758C14.8369 18.758 18.758 14.8369 18.758 10C18.758 5.16307 14.8369 1.24196 10 1.24196C5.16307 1.24196 1.24196 5.16307 1.24196 10C1.24196 14.8369 5.16307 18.758 10 18.758ZM10 20C15.5228 20 20 15.5228 20 10C20 4.47715 15.5228 0 10 0C4.47715 0 0 4.47715 0 10C0 15.5228 4.47715 20 10 20Z" fill="#FF4747"/>
</g>
</svg>
