<svg width="35" height="36" viewBox="0 0 35 36" fill="none" xmlns="http://www.w3.org/2000/svg">
<g id="shopping-cart">
<path id="icon" fill-rule="evenodd" clip-rule="evenodd" d="M6.60135 7.21167L7.42564 10.3438L10.0194 20.1992C11.065 24.1721 15.4624 26.2184 19.1751 24.4597L29.0589 19.7778C31.3509 18.6922 32.8121 16.3831 32.8121 13.8471V11.4375C32.8121 9.02125 30.8533 7.0625 28.4371 7.0625H9.9654L9.64014 5.89156C9.11414 3.99797 7.39003 2.6875 5.42475 2.6875H1.64075C0.734656 2.6875 0.00012207 3.42203 0.00012207 4.32812C0.00012207 5.23422 0.734656 5.96875 1.64075 5.96875H5.42475C5.91607 5.96875 6.3471 6.29637 6.47859 6.76976L6.60135 7.21167ZM17.7704 21.4944L27.6543 16.8125C28.8002 16.2696 29.5308 15.1151 29.5308 13.8471V11.4375C29.5308 10.8334 29.0411 10.3438 28.4371 10.3438H10.8186L13.1926 19.3641C13.7154 21.3506 15.9141 22.3737 17.7704 21.4944ZM26.2501 32.7656C28.3643 32.7656 30.0782 31.0517 30.0782 28.9375C30.0782 26.8233 28.3643 25.1094 26.2501 25.1094C24.1359 25.1094 22.422 26.8233 22.422 28.9375C22.422 31.0517 24.1359 32.7656 26.2501 32.7656ZM10.3907 28.9375C10.3907 31.0517 8.67684 32.7656 6.56262 32.7656C4.44841 32.7656 2.7345 31.0517 2.7345 28.9375C2.7345 26.8233 4.44841 25.1094 6.56262 25.1094C8.67684 25.1094 10.3907 26.8233 10.3907 28.9375Z" fill="white"/>
</g>
</svg>
