<svg width="40" height="40" viewBox="0 0 40 40" fill="none" xmlns="http://www.w3.org/2000/svg">
<g id="telegram-svgrepo-com 1" clip-path="url(#clip0_51047_14929)">
<path id="Vector" d="M20 3.33337C10.8334 3.33337 3.33337 10.8334 3.33337 20C3.33337 29.1667 10.8334 36.6667 20 36.6667C29.1667 36.6667 36.6667 29.1667 36.6667 20C36.6667 10.8334 29.1667 3.33337 20 3.33337ZM28.1667 13.5L25.3334 27.1667C25.1667 28.1667 24.5 28.3334 23.8334 27.8334L19.5 24.5C18.5 25.5 17.5 26.3334 17.3334 26.6667C17 26.8334 16.8334 27.1667 16.5 27.1667C16 27.1667 16 26.8334 15.8334 26.5L14.3334 21.5L9.83337 20C8.83337 19.6667 8.83337 19 10 18.5L27 12C27.6667 11.8334 28.5 12.1667 28.1667 13.5ZM24.1667 15L14.6667 21L16.1667 26L16.5 22.6667L24.6667 15.3334C25.1667 14.8334 24.8334 14.8334 24.1667 15Z" fill="#737373"/>
</g>
<defs>
<clipPath id="clip0_51047_14929">
<rect width="40" height="40" fill="white"/>
</clipPath>
</defs>
</svg>
